<?xml version="1.0" encoding="UTF-8"?><svg id="a" xmlns="http://www.w3.org/2000/svg" viewBox="0 0 648 648"><defs><style>.b{fill:#dadada;opacity:.25;}.b,.c{stroke-width:0px;}.c{fill:#343434;}</style></defs><rect class="c" width="648" height="648"/><path class="b" d="m352.92,112.5h-3.88c-1.41,0-2.56,1.15-2.56,2.56v12.88c0,1.41-1.15,2.56-2.56,2.56h-39.88c-1.41,0-2.56-1.15-2.56-2.56v-12.88c0-1.41-1.15-2.56-2.56-2.56h-3.88c-1.41,0-2.56,1.15-2.56,2.56v21.88c0,1.41,1.15,2.56,2.56,2.56h57.88c1.41,0,2.56-1.15,2.56-2.56v-21.88c0-1.41-1.15-2.56-2.56-2.56Z"/><rect class="b" x="535.5" y="112.5" width="9" height="9" rx="2.56" ry="2.56"/><path class="b" d="m343.92,94.5h-12.88c-1.41,0-2.56-1.15-2.56-2.56v-12.88c0-1.41-1.15-2.56-2.56-2.56h-3.88c-1.41,0-2.56,1.15-2.56,2.56v12.88c0,1.41-1.15,2.56-2.56,2.56h-12.88c-1.41,0-2.56,1.15-2.56,2.56v3.88c0,1.41,1.15,2.56,2.56,2.56h3.88c1.41,0,2.56,1.15,2.56,2.56v3.88c0,1.41,1.15,2.56,2.56,2.56h3.88c1.41,0,2.56,1.15,2.56,2.56v3.88c0,1.41,1.15,2.56,2.56,2.56h3.88c1.41,0,2.56-1.15,2.56-2.56v-3.88c0-1.41,1.15-2.56,2.56-2.56h3.88c1.41,0,2.56-1.15,2.56-2.56v-3.88c0-1.41,1.15-2.56,2.56-2.56h3.88c1.41,0,2.56-1.15,2.56-2.56v-3.88c0-1.41-1.15-2.56-2.56-2.56Z"/><path class="b" d="m136.94,85.5h-3.88c-1.41,0-2.56-1.15-2.56-2.56v-3.88c0-1.41-1.15-2.56-2.56-2.56h-12.88c-1.41,0-2.56,1.15-2.56,2.56v3.88c0,1.41-1.15,2.56-2.56,2.56h-3.88c-1.41,0-2.56-1.15-2.56-2.56v-3.88c0-1.41-1.15-2.56-2.56-2.56h-12.88c-1.41,0-2.56,1.15-2.56,2.56v3.88c0,1.41-1.15,2.56-2.56,2.56h-3.88c-1.41,0-2.56,1.15-2.56,2.56v21.88c0,1.41,1.15,2.56,2.56,2.56h3.88c1.41,0,2.56,1.15,2.56,2.56v3.88c0,1.41,1.15,2.56,2.56,2.56h3.88c1.41,0,2.56,1.15,2.56,2.56v3.88c0,1.41,1.15,2.56,2.56,2.56h3.88c1.41,0,2.56,1.15,2.56,2.56v3.88c0,1.41,1.15,2.56,2.56,2.56h3.88c1.41,0,2.56-1.15,2.56-2.56v-3.88c0-1.41,1.15-2.56,2.56-2.56h3.88c1.41,0,2.56-1.15,2.56-2.56v-3.88c0-1.41,1.15-2.56,2.56-2.56h3.88c1.41,0,2.56-1.15,2.56-2.56v-3.88c0-1.41,1.15-2.56,2.56-2.56h3.88c1.41,0,2.56-1.15,2.56-2.56v-21.88c0-1.41-1.15-2.56-2.56-2.56Zm-6.44,24.44c0,1.41-1.15,2.56-2.56,2.56h-3.88c-1.41,0-2.56,1.15-2.56,2.56v3.88c0,1.41-1.15,2.56-2.56,2.56h-3.88c-1.41,0-2.56,1.15-2.56,2.56v3.88c0,1.41-1.15,2.56-2.56,2.56h-3.88c-1.41,0-2.56-1.15-2.56-2.56v-3.88c0-1.41-1.15-2.56-2.56-2.56h-3.88c-1.41,0-2.56-1.15-2.56-2.56v-3.88c0-1.41-1.15-2.56-2.56-2.56h-3.88c-1.41,0-2.56-1.15-2.56-2.56v-21.88c0-1.41,1.15-2.56,2.56-2.56h12.88c1.41,0,2.56,1.15,2.56,2.56v3.88c0,1.41,1.15,2.56,2.56,2.56h3.88c1.41,0,2.56-1.15,2.56-2.56v-3.88c0-1.41,1.15-2.56,2.56-2.56h12.88c1.41,0,2.56,1.15,2.56,2.56v21.88Z"/><path class="b" d="m568.94,292.5h-57.88c-1.41,0-2.56,1.15-2.56,2.56v39.88c0,1.41,1.15,2.56,2.56,2.56h21.88c1.41,0,2.56,1.15,2.56,2.56v3.88c0,1.41-1.15,2.56-2.56,2.56h-3.88c-1.41,0-2.56,1.15-2.56,2.56v3.88c0,1.41,1.15,2.56,2.56,2.56h21.88c1.41,0,2.56-1.15,2.56-2.56v-3.88c0-1.41-1.15-2.56-2.56-2.56h-3.88c-1.41,0-2.56-1.15-2.56-2.56v-3.88c0-1.41,1.15-2.56,2.56-2.56h21.88c1.41,0,2.56-1.15,2.56-2.56v-39.88c0-1.41-1.15-2.56-2.56-2.56Zm-6.44,33.44c0,1.41-1.15,2.56-2.56,2.56h-39.88c-1.41,0-2.56-1.15-2.56-2.56v-21.88c0-1.41,1.15-2.56,2.56-2.56h39.88c1.41,0,2.56,1.15,2.56,2.56v21.88Z"/><path class="b" d="m136.94,328.5h-3.89c-1.41,0-2.56,1.15-2.56,2.56v12.88c0,1.41-1.15,2.56-2.56,2.56h-39.88c-1.41,0-2.56-1.15-2.56-2.56v-12.88c0-1.41-1.14-2.56-2.56-2.56h-3.89c-1.41,0-2.56,1.15-2.56,2.56v21.88c0,1.41,1.15,2.56,2.56,2.56h-2.56,60.44c1.41,0,2.56-1.15,2.56-2.56v-21.88c0-1.41-1.14-2.56-2.56-2.56Z"/><path class="b" d="m316.92,315h-21.88c-1.41,0-2.56,1.15-2.56,2.56v3.88c0,1.41,1.15,2.56,2.56,2.56h3.88c1.41,0,2.56,1.15,2.56,2.56v21.88c0,1.41,1.15,2.56,2.56,2.56h3.88c1.41,0,2.56-1.15,2.56-2.56v-21.88c0-1.41,1.15-2.56,2.56-2.56h3.88c1.41,0,2.56-1.15,2.56-2.56v-3.88c0-1.41-1.15-2.56-2.56-2.56Z"/><path class="b" d="m352.92,297h-39.88c-1.41,0-2.56,1.15-2.56,2.56v3.88c0,1.41,1.15,2.56,2.56,2.56h12.88c1.41,0,2.56,1.15,2.56,2.56v39.88c0,1.41,1.15,2.56,2.56,2.56h3.88c1.41,0,2.56-1.15,2.56-2.56v-39.88c0-1.41,1.15-2.56,2.56-2.56h12.88c1.41,0,2.56-1.15,2.56-2.56v-3.88c0-1.41-1.15-2.56-2.56-2.56Z"/><path class="b" d="m136.94,517.5h-39.88c-1.41,0-2.56,1.15-2.56,2.56v3.88c0,1.41-1.15,2.56-2.56,2.56h-3.88c-1.41,0-2.56,1.15-2.56,2.56v3.88c0,1.41-1.15,2.56-2.56,2.56h-3.88c-1.41,0-2.56,1.15-2.56,2.56v39.88c0,1.41,1.15,2.56,2.56,2.56h39.88c1.41,0,2.56-1.15,2.56-2.56v-3.88c0-1.41,1.15-2.56,2.56-2.56h3.88c1.41,0,2.56-1.15,2.56-2.56v-3.88c0-1.41,1.15-2.56,2.56-2.56h3.88c1.41,0,2.56-1.15,2.56-2.56v-39.88c0-1.41-1.15-2.56-2.56-2.56Zm-24.44,51.44c0,1.41-1.15,2.56-2.56,2.56h-21.88c-1.41,0-2.56-1.15-2.56-2.56v-21.88c0-1.41,1.15-2.56,2.56-2.56h21.88c1.41,0,2.56,1.15,2.56,2.56v21.88Zm6.44-33.44h-24.44v-6.44c0-1.41,1.15-2.56,2.56-2.56h24.44v6.44c0,1.41-1.15,2.56-2.56,2.56Zm11.56,24.44c0,1.41-1.15,2.56-2.56,2.56h-6.44v-24.44c0-1.41,1.15-2.56,2.56-2.56h6.44v24.44Z"/><rect class="b" x="526.5" y="522" width="9" height="27" rx="2.56" ry="2.56"/><rect class="b" x="544.5" y="522" width="9" height="27" rx="2.56" ry="2.56"/><path class="b" d="m568.94,558h-3.88c-1.41,0-2.56,1.15-2.56,2.56v3.88c0,1.41-1.15,2.56-2.56,2.56h-39.88c-1.41,0-2.56-1.15-2.56-2.56v-3.88c0-1.41-1.15-2.56-2.56-2.56h-3.88c-1.41,0-2.56,1.15-2.56,2.56v3.88c0,1.41,1.15,2.56,2.56,2.56h3.88c1.41,0,2.56,1.15,2.56,2.56v3.88c0,1.41,1.15,2.56,2.56,2.56h39.88c1.41,0,2.56-1.15,2.56-2.56v-3.88c0-1.41,1.15-2.56,2.56-2.56h3.88c1.41,0,2.56-1.15,2.56-2.56v-3.88c0-1.41-1.15-2.56-2.56-2.56Z"/><path class="b" d="m559.94,76.5h-39.89c-1.41,0-2.56,1.15-2.56,2.56v57.88c0,1.41,1.15,2.56,2.56,2.56h-2.56,45-2.56c1.41,0,2.56-1.15,2.56-2.56v-57.88c0-1.41-1.14-2.56-2.56-2.56Zm-6.44,51.44c0,1.41-1.15,2.56-2.56,2.56h-21.88c-1.41,0-2.56-1.15-2.56-2.56v-39.88c0-1.41,1.15-2.56,2.56-2.56h21.88c1.41,0,2.56,1.15,2.56,2.56v39.88Z"/><path class="b" d="m127.94,310.5h-3.89c-1.41,0-2.56-1.15-2.56-2.56v-3.88c0-1.41-1.14-2.56-2.56-2.56h-3.89c-1.41,0-2.56-1.15-2.56-2.56v-3.88c0-1.41-1.14-2.56-2.56-2.56h-3.89c-1.41,0-2.56,1.15-2.56,2.56v3.88c0,1.41-1.15,2.56-2.56,2.56h-3.89c-1.41,0-2.56,1.15-2.56,2.56v3.88c0,1.41-1.15,2.56-2.56,2.56h-3.89c-1.41,0-2.56,1.15-2.56,2.56v3.88c0,1.41,1.15,2.56,2.56,2.56h15.44v15.44c0,1.41,1.15,2.56,2.56,2.56h-2.56,9-2.56c1.41,0,2.56-1.15,2.56-2.56v-15.44h15.44c1.41,0,2.56-1.15,2.56-2.56v-3.88c0-1.41-1.14-2.56-2.56-2.56Z"/><path class="b" d="m352.92,517.5h-21.88c-1.41,0-2.56,1.15-2.56,2.56v21.88c0,1.41,1.15,2.56,2.56,2.56h21.88c1.41,0,2.56-1.15,2.56-2.56v-21.88c0-1.41-1.15-2.56-2.56-2.56Zm-6.44,15.44c0,1.41-1.15,2.56-2.56,2.56h-3.88c-1.41,0-2.56-1.15-2.56-2.56v-3.88c0-1.41,1.15-2.56,2.56-2.56h3.88c1.41,0,2.56,1.15,2.56,2.56v3.88Z"/><path class="b" d="m316.92,517.5h-21.88c-1.41,0-2.56,1.15-2.56,2.56v21.88c0,1.41,1.15,2.56,2.56,2.56h21.88c1.41,0,2.56-1.15,2.56-2.56v-21.88c0-1.41-1.15-2.56-2.56-2.56Zm-6.44,15.44c0,1.41-1.15,2.56-2.56,2.56h-3.88c-1.41,0-2.56-1.15-2.56-2.56v-3.88c0-1.41,1.15-2.56,2.56-2.56h3.88c1.41,0,2.56,1.15,2.56,2.56v3.88Z"/><path class="b" d="m316.92,553.5h-21.88c-1.41,0-2.56,1.15-2.56,2.56v21.88c0,1.41,1.15,2.56,2.56,2.56h21.88c1.41,0,2.56-1.15,2.56-2.56v-21.88c0-1.41-1.15-2.56-2.56-2.56Zm-6.44,15.44c0,1.41-1.15,2.56-2.56,2.56h-3.88c-1.41,0-2.56-1.15-2.56-2.56v-3.88c0-1.41,1.15-2.56,2.56-2.56h3.88c1.41,0,2.56,1.15,2.56,2.56v3.88Z"/><path class="b" d="m352.92,553.5h-21.88c-1.41,0-2.56,1.15-2.56,2.56v21.88c0,1.41,1.15,2.56,2.56,2.56h21.88c1.41,0,2.56-1.15,2.56-2.56v-21.88c0-1.41-1.15-2.56-2.56-2.56Zm-6.44,15.44c0,1.41-1.15,2.56-2.56,2.56h-3.88c-1.41,0-2.56-1.15-2.56-2.56v-3.88c0-1.41,1.15-2.56,2.56-2.56h3.88c1.41,0,2.56,1.15,2.56,2.56v3.88Z"/></svg>