<?xml version="1.0" encoding="utf-8"?>
<!-- Generator: Adobe Illustrator 28.4.1, SVG Export Plug-In . SVG Version: 6.00 Build 0)  -->
<svg version="1.1" id="a" xmlns="http://www.w3.org/2000/svg" xmlns:xlink="http://www.w3.org/1999/xlink" x="0px" y="0px"
	 viewBox="0 0 823.5 99.1" style="enable-background:new 0 0 823.5 99.1;" xml:space="preserve">
<path d="M616.6,64.4h-1.7V37.2c0-1.4-1.1-2.5-2.5-2.5h-4.9c-1.4,0-2.6-1.1-2.6-2.6v-5c0-1.2-1-2.2-2.2-2.2h-15.4
	c-1.2,0-2.2,1-2.2,2.2v5.1c0,1.4-1.2,2.6-2.6,2.6h-4.9c-1.4,0-2.5,1.1-2.5,2.5v5c0,1.4,1.1,2.5,2.5,2.5h5c1.4,0,2.5-1.1,2.5-2.5
	v-4.9c0-1.4,1.2-2.6,2.6-2.6h14.7c1.4,0,2.6,1.2,2.6,2.6v7.3h-17.7c-1.2,0-2.1,0.9-2.1,2.1V52c0,1.4-1.2,2.6-2.6,2.6h-4.9
	c-1.4,0-2.5,1.1-2.5,2.5v5c0,1.4,1.1,2.5,2.5,2.5h4.9c1.4,0,2.6,1.1,2.6,2.6v5c0,1.3,1,2.3,2.3,2.3h29c1.3,0,2.3-1,2.3-2.3v-5.3
	C618.9,65.5,617.8,64.4,616.6,64.4L616.6,64.4z M605,61.9c0,1.4-1.1,2.5-2.5,2.6h-14.8c-1.4,0-2.5-1.1-2.6-2.5v-4.9
	c0-1.4,1.2-2.6,2.6-2.6h14.7c1.4,0,2.6,1.1,2.6,2.6C605,57.1,605,61.9,605,61.9z"/>
<path d="M799.7,64.4H798V37.2c0-1.4-1.1-2.5-2.5-2.5h-4.9c-1.4,0-2.5-1.1-2.5-2.5v-5.1c0-1.2-1-2.2-2.2-2.2h-15.4
	c-1.2,0-2.2,1-2.2,2.2v5.1c0,1.4-1.2,2.6-2.6,2.6H761c-1.4,0-2.5,1.1-2.5,2.5v5c0,1.4,1.1,2.5,2.5,2.5h5c1.4,0,2.5-1.1,2.5-2.5v-5
	c0.1-1.4,1.2-2.5,2.6-2.5h14.7c1.4,0,2.6,1.2,2.6,2.6v7.3h-17.7c-1.2,0-2.1,0.9-2.1,2.1V52c0,1.4-1.2,2.6-2.6,2.6h-5
	c-1.4,0-2.5,1.1-2.5,2.5v5c0,1.4,1.1,2.5,2.5,2.5h4.9c1.4,0,2.5,1.1,2.6,2.5v5.1c0,1.3,1,2.3,2.3,2.3h29c1.3,0,2.3-1,2.3-2.3v-5.3
	C802,65.5,801,64.4,799.7,64.4L799.7,64.4z M788.2,61.9c0,1.4-1.1,2.5-2.5,2.6H771c-1.4,0-2.5-1.1-2.6-2.5v-5
	c0.1-1.4,1.2-2.5,2.6-2.5h14.7c1.4,0,2.6,1.1,2.6,2.6L788.2,61.9C788.2,61.9,788.2,61.9,788.2,61.9z"/>
<path d="M318.7,34.7h-4.5c-1.4,0-2.6-1.2-2.6-2.6v-3.6l0,0c0-2-1.7-3.7-3.7-3.7h-23c-1.6,0-2.9,1.3-2.9,2.9v43.7
	c0,1.6,1.3,2.9,2.9,2.9h4.1c1.6,0,2.9-1.3,2.9-2.9V37.3c0-1.4,1.1-2.6,2.6-2.6h14.7c1.4,0,2.5,1.1,2.6,2.5v34.2
	c0,1.6,1.3,2.9,2.9,2.9h4.2c1.6,0,2.9-1.3,2.9-2.9V37.6C321.6,36,320.3,34.7,318.7,34.7z"/>
<path d="M421.6,34.8h-4.9c-1.4,0-2.6-1.2-2.6-2.6v-3.9c0-1.9-1.5-3.4-3.4-3.4h-13.8c-1.4,0-2.6-1.2-2.6-2.6V2.5
	c0-1.4-1.1-2.5-2.5-2.5h-5c-1.4,0-2.5,1.1-2.5,2.5v69.4c0,1.4,1.1,2.5,2.5,2.5h5c1.4,0,2.5-1.1,2.5-2.5V36.8c0.3-1.1,1.3-2,2.5-2
	h14.8c1.4,0,2.5,1.1,2.5,2.5v34.6c0,1.4,1.1,2.5,2.5,2.5h5c1.4,0,2.5-1.1,2.5-2.5V37.3C424.1,35.9,423,34.8,421.6,34.8z"/>
<path d="M561.3,34.7h-4.9c-1.4,0-2.6-1.2-2.6-2.6v-3.9c0-1.9-1.5-3.4-3.4-3.4h-13.8c-1.4,0-2.6-1.2-2.6-2.6V2.5
	c0-1.4-1.1-2.5-2.5-2.5h-5c-1.4,0-2.5,1.1-2.5,2.5v69.3c0,1.4,1.1,2.5,2.5,2.5h5c1.4,0,2.5-1.1,2.5-2.5V36.7
	c0.3-1.1,1.2-1.9,2.4-1.9h14.9c1.4,0.1,2.5,1.2,2.5,2.6v34.5c0,1.4,1.1,2.5,2.5,2.5h5c1.4,0,2.5-1.1,2.5-2.5V37.2
	C563.8,35.9,562.7,34.7,561.3,34.7L561.3,34.7z"/>
<path d="M510.1,10h-4.9c-1.4,0-2.6-1.2-2.6-2.6V2.3c0-1.3-1-2.3-2.3-2.3h-39.9c-1.3,0-2.3,1-2.3,2.3V10h7.3c1.4,0,2.6,1.1,2.6,2.6
	v49.3c0,1.4-1.2,2.6-2.6,2.6h-7.3v7.6c0,1.3,1,2.3,2.3,2.3h39.9c1.3,0,2.3-1,2.3-2.3v-5c0-1.4,1.1-2.6,2.6-2.6h4.9
	c1.4,0,2.5-1.1,2.5-2.5V12.5C512.6,11.1,511.5,10,510.1,10L510.1,10z M502.7,61.8c0,1.4-1.2,2.6-2.6,2.6h-19.6
	c-1.4,0-2.6-1.1-2.6-2.6V12.5c0-1.4,1.2-2.6,2.6-2.6h19.6c1.4,0,2.6,1.1,2.6,2.6V61.8z"/>
<path d="M745,24.8h-5c-1.4,0-2.5,1.1-2.5,2.5v34.5c0,1.4-1.2,2.6-2.6,2.6h-4.8c-1.4,0-2.6-1.1-2.6-2.6V37.1c0-1.3-1.1-2.4-2.4-2.4
	H720c-1.3,0-2.4,1.1-2.4,2.4v24.7c0,1.4-1.2,2.6-2.6,2.6h-4.8c-1.4,0-2.5-1.1-2.6-2.5V27.3c0-1.4-1.1-2.5-2.5-2.5h-5
	c-1.4,0-2.5,1.1-2.5,2.5v34.6c0,1.4,1.1,2.5,2.5,2.5h4.9c1.4,0,2.6,1.2,2.6,2.6v5.3c0,1.1,0.9,2,2,2h5.8c1.1,0,2-0.9,2-2V67
	c0-1.4,1.2-2.6,2.6-2.6h4.8c1.4,0,2.6,1.2,2.6,2.6v5.3c0,1.1,0.9,2,2,2h5.8c1.1,0,2-0.9,2-2V67c0-1.4,1.2-2.6,2.6-2.6h4.9
	c1.4,0,2.5-1.1,2.5-2.5V27.3C747.5,25.9,746.3,24.8,745,24.8z"/>
<path d="M637.7,0h-5c-1.4,0-2.5,1.1-2.5,2.5v69.3c0,1.4,1.1,2.5,2.5,2.5h5c1.4,0,2.5-1.1,2.5-2.5V2.5C640.2,1.1,639.1,0,637.7,0z"/>
<path d="M821,0h-5c-1.4,0-2.5,1.1-2.5,2.5v69.3c0,1.4,1.1,2.5,2.5,2.5h5c1.4,0,2.5-1.1,2.5-2.5V2.5C823.5,1.1,822.4,0,821,0z"/>
<path d="M222.1,10h-4.9c-1.4,0-2.6-1.1-2.6-2.6v-5c0-1.3-1.1-2.4-2.4-2.4h-20c-1.3,0-2.4,1.1-2.4,2.4v4.9c0,1.4-1.1,2.6-2.6,2.6
	h-4.9c-1.4,0-2.5,1.1-2.5,2.5v16.8c0,1.4,1.1,2.5,2.5,2.5h4.9c1.4,0,2.6,1.1,2.6,2.6v4.9c0,1.3,1.1,2.4,2.4,2.4H212
	c1.4,0,2.6,1.2,2.6,2.6v17.6c0,1.4-1.1,2.6-2.6,2.6h-19.6c-1.4,0-2.6-1.1-2.6-2.6v-4.9c0-1.4-1.1-2.5-2.5-2.5h-5
	c-1.4,0-2.5,1.1-2.5,2.5v5c0,1.4,1.1,2.5,2.5,2.5h4.9c1.4,0,2.6,1.2,2.6,2.6v5c0,1.3,1.1,2.4,2.4,2.4h20c1.3,0,2.4-1.1,2.4-2.4v-5
	c0-1.4,1.2-2.6,2.6-2.6h4.9c1.4,0,2.5-1.1,2.5-2.5V44.1c0-1.4-1.1-2.5-2.5-2.5h-4.9c-1.4,0-2.6-1.1-2.6-2.6v-5
	c0-1.3-1.1-2.4-2.4-2.4h-19.8c-1.4,0-2.6-1.2-2.6-2.6V12.6c0-1.4,1.2-2.6,2.6-2.6H212c1.4,0,2.6,1.2,2.6,2.6v4.9
	c0,1.4,1.1,2.5,2.5,2.5h5c1.4,0,2.5-1.1,2.5-2.5v-5C224.5,11.1,223.4,10,222.1,10z"/>
<path d="M143.6,64.3h-4.9c-1.4,0-2.6-1.1-2.6-2.6V27.1c0-1.4-1.1-2.5-2.5-2.5h-5c-1.4,0-2.5,1.1-2.5,2.5V32c0,1.4-1.2,2.6-2.6,2.6
	h-4.9c-1.4,0-2.5,1.1-2.5,2.5v5c0,1.4,1.1,2.5,2.5,2.5h4.9c1.4,0,2.5,1.1,2.5,2.5v14.8c0,1.4-1.2,2.6-2.6,2.6h-9.8
	c-1.4,0-2.5,1.1-2.5,2.5v4.9c0,1.4,1.1,2.5,2.5,2.5h29.7c1.4,0,2.5-1.1,2.5-2.5V67C146,65.4,144.9,64.3,143.6,64.3z"/>
<path d="M123.7,14.8h9.9c1.4,0,2.5-1.1,2.5-2.5V2.5c0-1.4-1.1-2.5-2.5-2.5h-9.9c-1.4,0-2.5,1.1-2.5,2.5v9.9
	C121.2,13.7,122.3,14.8,123.7,14.8z M126.2,7.4c0-1.4,1.1-2.5,2.5-2.5l0,0c1.4,0,2.5,1.1,2.5,2.5l0,0c0,1.4-1.1,2.5-2.5,2.5l0,0
	C127.3,9.9,126.2,8.8,126.2,7.4C126.2,7.4,126.2,7.4,126.2,7.4z"/>
<path d="M268.2,64.4h-4.9c-1.4,0-2.6-1.1-2.6-2.6V27.2c0-1.4-1.1-2.5-2.5-2.5h-5c-1.4,0-2.5,1.1-2.5,2.5v4.9c0,1.4-1.2,2.6-2.6,2.6
	h-4.6c-1.4,0-2.5,1.1-2.5,2.5v5c0,1.4,1.1,2.5,2.5,2.5h4.9c1.4,0,2.6,1.1,2.6,2.6V62c0,1.4-1.2,2.6-2.6,2.6h-9.9
	c-1.4,0-2.5,1.1-2.5,2.5V72c0,1.4,1.1,2.5,2.5,2.5h29.7c1.4,0,2.5-1.1,2.5-2.5v-4.9C270.7,65.5,269.6,64.4,268.2,64.4z"/>
<path d="M248.3,14.8h9.9c1.4,0,2.5-1.1,2.5-2.5V2.5c0-1.4-1.1-2.5-2.5-2.5h-9.9c-1.4,0-2.5,1.1-2.5,2.5v9.9
	C245.9,13.7,247,14.8,248.3,14.8L248.3,14.8z M250.8,7.4c0-1.4,1.1-2.5,2.5-2.5l0,0c1.4,0,2.5,1.1,2.5,2.5l0,0
	c0,1.4-1.1,2.5-2.5,2.5l0,0C251.9,9.9,250.8,8.8,250.8,7.4C250.8,7.4,250.8,7.4,250.8,7.4z"/>
<path d="M683.9,64.4H679c-1.4,0-2.6-1.1-2.6-2.6V27.2c0-1.4-1.1-2.5-2.5-2.5h-5c-1.4,0-2.5,1.1-2.5,2.5v4.9c0,1.4-1.2,2.6-2.6,2.6
	h-4.9c-1.4,0-2.5,1.1-2.5,2.5v5c0,1.4,1.1,2.5,2.5,2.5h4.9c1.4,0,2.6,1.1,2.6,2.6V62c0,1.4-1.2,2.6-2.6,2.6H654
	c-1.4,0-2.5,1.1-2.5,2.5V72c0,1.4,1.1,2.5,2.5,2.5h29.7c1.4,0,2.5-1.1,2.5-2.5v-4.9C686.4,65.5,685.3,64.4,683.9,64.4L683.9,64.4z"
	/>
<path d="M664,14.8h9.9c1.4,0,2.5-1.1,2.5-2.5V2.5c0-1.4-1.1-2.5-2.5-2.5H664c-1.4,0-2.5,1.1-2.5,2.5v9.9
	C661.5,13.7,662.6,14.8,664,14.8z M666.6,7.4c0-1.4,1.1-2.5,2.5-2.5l0,0c1.4,0,2.5,1.1,2.5,2.5l0,0c0,1.4-1.1,2.5-2.5,2.5l0,0
	C667.7,9.9,666.6,8.8,666.6,7.4C666.6,7.4,666.6,7.4,666.6,7.4z"/>
<path d="M372.9,37.2c0-1.4-1-2.5-2.4-2.5h-4.9c-1.4,0-2.5-1.1-2.5-2.5v-5.3c0-1.2-1-2.1-2.1-2.1h-15.5c-1.2,0-2.1,1-2.1,2.1v5.2
	c0,1.4-1.2,2.6-2.6,2.6h-4.9c-1.4,0-2.5,1.1-2.5,2.5v24.7c0,1.4,1.1,2.5,2.5,2.5h4.9c1.4,0,2.6,1.1,2.6,2.6v5.1l0,0
	c0,1.2,1,2.3,2.2,2.3h15.5c1.1,0.2,2,1.1,2,2.3v9.9c0,1.4-1.1,2.6-2.6,2.6h-14.7c-1.4,0-2.6-1.2-2.6-2.6v-4.9c0-1.4-1.1-2.5-2.5-2.5
	h-5c-1.4,0-2.5,1.1-2.5,2.5v5c0,1.4,1.1,2.5,2.5,2.5h4.9c1.4,0,2.6,1.2,2.6,2.6V97l0,0c0,1.2,1,2.1,2.1,2.1h15.5
	c1.2,0,2.1-1,2.1-2.1v-5.3c0.1-1.4,1.2-2.5,2.5-2.5h4.9c1.4,0,2.7-1.1,2.7-2.5C373,86.7,372.9,37.2,372.9,37.2z M362.9,61.8
	c0,1.4-1,2.6-2.5,2.6h-14.7c-1.4,0-2.6-1.1-2.6-2.6V37.3c0-1.4,1.1-2.6,2.6-2.6h14.7c1.4,0,2.5,1.1,2.5,2.5V61.8z"/>
<path d="M42.1,0H12.5C11.1,0,10,1.1,10,2.5v4.9c0,1.4,1.1,2.5,2.5,2.5h19.7c1.4,0,2.6,1.2,2.6,2.6v49.3c0,1.4-1.2,2.6-2.6,2.6H12.6
	c-1.4,0-2.6-1.1-2.6-2.6v-4.9c0-1.4-1.1-2.5-2.5-2.5h-5c-1.4,0-2.5,1.1-2.5,2.5v5c0,1.4,1.1,2.5,2.5,2.5h4.9c1.4,0,2.6,1.2,2.6,2.6
	v4.9c0,1.4,1.1,2.5,2.5,2.5h19.8c1.4,0,2.5-1.1,2.5-2.5V67c0-1.4,1.2-2.6,2.6-2.6h4.9c1.4,0,2.5-1.1,2.5-2.5V2.5l0,0
	C44.6,1.1,43.5,0,42.1,0z"/>
<path d="M97.5,64.3h-1.7V37.1c0-1.4-1.1-2.5-2.5-2.5h-4.9c-1.4,0-2.6-1.2-2.6-2.6v-5c0-1.2-1-2.2-2.2-2.2H68.4c-1.2,0-2.2,1-2.2,2.2
	v5.1c0,1.4-1.1,2.6-2.6,2.6h-4.9c-1.4,0-2.5,1.1-2.5,2.5v5c0,1.4,1.1,2.5,2.5,2.5h5c1.4,0,2.5-1.1,2.5-2.5v-4.9
	c0-1.4,1.2-2.6,2.6-2.6h14.7c1.4,0,2.6,1.1,2.6,2.6v7.3H68.2c-1.2,0-2.1,0.9-2.1,2.1v5.2c0,1.4-1.1,2.6-2.6,2.6h-4.9
	c-1.4,0-2.5,1.1-2.5,2.5v5c0,1.4,1.1,2.5,2.5,2.5h4.9c1.4,0,2.6,1.2,2.6,2.6v5c0,1.3,1,2.3,2.3,2.3h29c1.3,0,2.3-1,2.3-2.3v-5.3
	C99.8,65.3,98.8,64.3,97.5,64.3L97.5,64.3z M85.9,61.7c0,1.4-1.2,2.6-2.6,2.6H68.7c-1.4,0-2.5-1.1-2.6-2.5V57c0-1.4,1.2-2.6,2.6-2.6
	h14.7c1.4,0,2.6,1.2,2.6,2.6L85.9,61.7L85.9,61.7z"/>
</svg>
