<?xml version="1.0" encoding="utf-8"?>
<!-- Generator: Adobe Illustrator 28.0.0, SVG Export Plug-In . SVG Version: 6.00 Build 0)  -->
<svg version="1.1" id="Layer_1" xmlns="http://www.w3.org/2000/svg" xmlns:xlink="http://www.w3.org/1999/xlink" x="0px" y="0px"
	 viewBox="0 0 210.9 128.1" style="enable-background:new 0 0 210.9 128.1;" xml:space="preserve">
<style type="text/css">
	.st0{fill:#343434;}
</style>
<g>
	<path class="st0" d="M57.1,0c8.7,0,16.2,1.2,22.3,3.5c6.1,2.3,11.8,5.6,16.9,9.8L82.1,30.4c-3.3-2.8-7-4.9-11.1-6.6
		c-4.1-1.6-8.5-2.4-13.2-2.4c-5.1,0-9.8,1.5-14,4.4c-4.2,2.9-7.6,7.5-10.1,13.7c-2.5,6.3-3.8,14.4-3.8,24.3c0,9.8,1.2,17.8,3.7,24
		c2.4,6.2,5.8,10.7,10.1,13.6c4.3,2.9,9.2,4.4,14.7,4.4c6.1,0,11.2-1.1,15.2-3.4c4-2.3,7.8-4.8,11.2-7.5l13.1,16.7
		c-4.6,4.5-10.2,8.4-16.9,11.6c-6.7,3.2-14.8,4.8-24.2,4.8c-11,0-20.8-2.5-29.4-7.4S12.1,108.6,7.3,99.1C2.4,89.6,0,77.8,0,63.8
		c0-13.6,2.5-25.2,7.5-34.7c5-9.5,11.8-16.7,20.5-21.7C36.6,2.5,46.3,0,57.1,0z"/>
	<path class="st0" d="M157.5,102.6L181.2,0h29.8l-37,128.1h-34L103.2,0H134L157.5,102.6z"/>
</g>
</svg>
