<?xml version="1.0" encoding="utf-8"?>
<!-- Generator: Adobe Illustrator 28.0.0, SVG Export Plug-In . SVG Version: 6.00 Build 0)  -->
<svg version="1.1" id="Layer_1" xmlns="http://www.w3.org/2000/svg" xmlns:xlink="http://www.w3.org/1999/xlink" x="0px" y="0px"
	 viewBox="0 0 128.2 128.1" style="enable-background:new 0 0 128.2 128.1;" xml:space="preserve">
<style type="text/css">
	.st0{fill:#343434;}
</style>
<path class="st0" d="M110.8,0H17.4C7.8,0,0,7.8,0,17.4v93.3c0,9.6,7.8,17.4,17.4,17.4h93.3c9.6,0,17.4-7.8,17.4-17.4V17.4
	C128.2,7.8,120.4,0,110.8,0z M77.8,20.9L89,69.8l11.3-48.9h14.2L96.9,82H80.7L62.8,20.9H77.8z M17.5,34.8c2.4-4.5,5.6-8,9.8-10.4
	c4.1-2.4,8.7-3.5,13.9-3.5c4.2,0,7.7,0.6,10.6,1.7c2.9,1.1,5.6,2.7,8,4.7L53,35.4c-1.6-1.3-3.4-2.4-5.3-3.1c-1.9-0.8-4-1.2-6.3-1.2
	c-2.4,0-4.7,0.7-6.7,2.1c-2,1.4-3.6,3.6-4.8,6.6c-1.2,3-1.8,6.9-1.8,11.6c0,7,1.3,12.1,3.8,15.3c2.5,3.2,5.8,4.8,9.8,4.8
	c2.9,0,5.3-0.5,7.3-1.6c1.9-1.1,3.7-2.3,5.3-3.6l6.3,8c-2.2,2.2-4.9,4-8.1,5.5c-3.2,1.5-7,2.3-11.5,2.3c-5.3,0-9.9-1.2-14-3.5
	c-4.1-2.3-7.3-5.8-9.6-10.3c-2.3-4.5-3.5-10.2-3.5-16.8C13.9,44.8,15.1,39.3,17.5,34.8z M108.3,109.7H19.9c-3.2,0-5.8-2.6-5.8-5.8
	s2.6-5.8,5.8-5.8h88.4c3.2,0,5.8,2.6,5.8,5.8S111.5,109.7,108.3,109.7z"/>
</svg>
