<svg xmlns="http://www.w3.org/2000/svg" viewBox="0 0 864.93 232.21" fill="#343434" xmlns:v="https://vecta.io/nano"><path d="M122.67 141.34c-8.82 0-17.12-.23-25.39.09-4.86.19-6.52-1.63-6.42-6.37.22-10 .15-20 0-30 0-4 1.51-5.75 5.61-5.73q34.23.12 68.47 0c3.72 0 5.48 1.42 5.47 5.32l-.21 106.46c0 2-2.17 4.79-4.09 5.9-15.24 8.83-31.91 13.21-49.36 14.59-19.09 1.51-38 .26-56.3-5.7-26.08-8.49-43.65-26.15-51.73-52.12-12.15-39.09-11.58-78.61 1.52-117.33 11.11-32.89 35.37-50.77 69.47-55 22.81-2.83 45.58-1.65 67.84 4.64 14.8 4.18 14.74 4.37 11.19 19.31l-4.84 20.39c-1.45 6-2 6.33-7.79 4.49-15.8-5.07-32-6.15-48.41-4.85C73.64 47.34 59 59.43 53 82.9a134.93 134.93 0 0 0 .59 70.15c6.52 23.56 21.3 34.36 45.75 34.23a187.48 187.48 0 0 0 19.43-1.29c1.38-.14 3.71-1.78 3.73-2.76l.17-41.89zm370.9-7.62h-63.88v87.54c0 6-.48 6.53-6.55 6.54-11.66 0-23.33-.09-35 .06-4.22.06-6-1.46-6-5.83q.12-104 0-208c0-4.12 1.68-5.62 5.68-5.58h35.49c4.67-.07 6.46 1.42 6.41 6.36l-.09 75.18h63.94V15.17c0-6.1.5-6.63 6.48-6.64l35-.07c4.5-.07 6.22 1.61 6.22 6.15q-.12 103.48 0 207c0 4.41-1.45 6.36-6.08 6.29-12-.18-24-.15-36 0-4.34 0-5.78-1.7-5.76-6l.14-88.18zm275-51.32c9.17-2.68 17.74-6.41 26.63-7.41 9.6-1.1 19.79-1.08 29.19.94 21.39 4.6 32.19 20.35 36.68 40.48a157.81 157.81 0 0 1-2.24 78.12c-7.93 28.06-27.18 39.32-59.6 37.13-15.08-1-29-5.68-41.19-14.72a6.69 6.69 0 0 0-.72 1.17c-2.64 9.72-2.64 9.72-13.07 9.72-5.67 0-11.34-.19-17 .06-4.72.21-6.59-1.59-6.51-6.4.2-12.49.07-205 .07-205 0-7.64.33-8 7.78-8l34-.06c4.55-.07 6.08 1.66 6 6.2l-.02 67.77zm49.79 69.77c-1.25-7.78-2-16.27-4.1-24.4-2.27-8.74-8.38-14.23-17.74-15.21-9.59-1-18.5 1.5-26.87 5.91-1.13.59-1.87 3-1.88 4.52l-.15 59.91c0 3 1.15 4.45 3.72 5.63a52.94 52.94 0 0 0 25.23 4.72c9.93-.53 15.77-4.55 17.92-14.2 1.91-8.53 2.51-17.36 3.87-26.88zm-624.79-67c0-6.65.38-7 7.19-7l34.48-.08c4.69-.1 6.1 1.82 6.09 6.21q-.12 68-.07 136c0 6.57-.94 7.43-7.6 7.45h-32.49c-6.42 0-7.59-1.24-7.6-7.57zm24.28-19a26.41 26.41 0 1 1 25.81-26c-.217 14.195-11.617 25.679-25.81 26zm63.4 51.41c-7.07 0-13.22-.11-19.36 0-4.09.1-5.63-1.58-5.5-5.67.23-7.16.26-14.34 0-21.49-.16-4 1.52-5.63 5.25-6.35 5.21-1 10.3-2.76 15.53-3.67 3.46-.6 4.19-2.25 4.14-5.41l-.16-33.48c-.16-5 1.65-6.24 6.32-6.12 11.49.27 23 .25 34.49 0 4.45-.1 6.18 1.15 6 5.89-.3 10.32 0 34.58 0 36.85l28-.08c4.58-.14 6.3 1.52 6.2 6-.19 8.83 0 17.66-.06 26.49 0 6.38-.54 6.92-6.76 6.94h-27c-.55 1.92-.38 40.08-.33 57.56.79 13.42 4.77 19.83 29.17 17.54 3.89-.37 5.51 1.13 5.45 5.05-.13 8.5.14 17-.24 25.48-.07 1.71-2 4.36-3.56 4.83-16.36 4.83-32.89 5.16-49.17-.14-16.87-5.5-27.35-19.85-28-39.27-.66-21.37-.41-68.26-.41-70.95zm384.37 100.15c-13 7.54-26.12 12.53-40.43 13.94a86.71 86.71 0 0 1-34.13-3c-18.24-5.56-28.82-20-29.38-41.27-.59-22.32-.25-91.33-.35-103.49 0-4.09 1.51-5.69 5.58-5.64h36c4.89-.1 6.36 1.85 6.33 6.51l.48 95c.94 8.36 5.69 12.75 14.07 13.46a47.78 47.78 0 0 0 24.26-4.53c3.45-1.59 4.79-3.56 4.77-7.56l-.11-96c0-6.32.47-6.78 6.85-6.79l34.49-.06c4.28-.06 5.92 1.51 5.92 5.85q-.15 69 0 138c0 4.43-1.81 5.88-6 5.78-6.49-.16-14.77-.2-21.76 0-5.62-.19-5.21-4-6.59-10.2z"/></svg>