<svg xmlns="http://www.w3.org/2000/svg" viewBox="0 0 864.9 231.5" xmlns:v="https://vecta.io/nano"><path d="M122.7 140.7H90.9V99l79.5.2.3 114.5s-26.8 15.4-53.9 17.3c-19.1 1.5-88.7 4.8-108.1-57.9a186.7 186.7 0 0 1 1.5-117.3C21.4 22.9 45.6 5 79.7.8c22.8-2.8 60.4 2.5 82.7 8.8l-10.5 41.9c-15.8-5.1-104.4-30.8-103.2 62.4.8 98.4 73.8 69.7 73.8 69.7l.2-42.9zm370.9-7.6h-63.9v94h-47.6V7.8h47.6v81.6h64V7.9h47.6v219.2h-47.9zm275-51.3c14.9-5.4 35.2-10.7 55.8-6.5s41.1 24.7 40.5 74.9c.6 72.6-33.2 83-65.7 80.8-21.6.3-41.7-13.9-41.9-13.5l-2.6 9.7h-34V8.2l47.8-.4v74zm49.8 69.7c-1.3-7.7-2-16.2-4.1-24.4-8.5-24.3-36.3-13.7-44.6-9.3-3.6 2.1-2.9 68.5-.9 68.9 7.9 3.7 40.3 16.6 45.7-8.3 1.9-8.5 2.5-17.3 3.9-26.9zM194 77.5h47.3v149.6h-47.7zm23.9-12c-14.58.331-26.669-11.22-27-25.8s11.22-26.669 25.8-27c14.5-.3 27 12.6 27 25.8 0 10.8-7.1 27-25.8 27zm63.4 51.4c-7.1 0-24.9.6-24.9.6V84.9l25-7.4-1-42.8H328v42.8h34.6l-.5 38.7-33.8.5c-.5 2-.3 40.1-.3 57.6.8 13.4 4.2 21.9 34.7 17.3l-.4 32.5c-25.7 8.4-36.4 8.3-52.6 3s-27.4-19.9-28-39.3c-.7-21.4-.4-68.3-.4-71zm384.3 100.2c-13 7.5-26.1 12.5-40.4 13.9a85.3 85.3 0 0 1-34.1-3c-18.3-5.5-28.9-20-29.4-41.2s-.4-109.2-.4-109.2h47.6l.8 101.5s-.1 13.6 14.1 13.5c27 .4 29-9.6 29-9.6l.4-105.3H700v149.4h-33.4l-1-10z" fill="#343434"/></svg>