<svg id="Layer_1" data-name="Layer 1" xmlns="http://www.w3.org/2000/svg" viewBox="0 0 864.96 232.22"><defs><style>.cls-1{fill:#343434;}</style></defs><path class="cls-1" d="M650.1,562.17c-8.82,0-17.12-.23-25.39.09-4.86.19-6.52-1.63-6.42-6.37.22-10,.15-20,0-30,0-4,1.51-5.75,5.61-5.73q34.23.12,68.47,0c3.72,0,5.48,1.42,5.47,5.32-.06,35.49,0,71-.21,106.46,0,2-2.17,4.79-4.09,5.9-15.24,8.83-31.91,13.21-49.36,14.59-19.09,1.51-38,.26-56.3-5.7-26.08-8.49-43.65-26.15-51.73-52.12C524,555.52,524.57,516,537.67,477.28c11.11-32.89,35.37-50.77,69.47-55,22.81-2.83,45.58-1.65,67.84,4.64,14.8,4.18,14.74,4.37,11.19,19.31-1.62,6.8-3.2,13.6-4.84,20.39-1.45,6-2,6.33-7.79,4.49-15.8-5.07-32-6.15-48.41-4.85-24.06,1.91-38.69,14-44.68,37.47a134.93,134.93,0,0,0,.59,70.15c6.52,23.56,21.3,34.36,45.75,34.23,6.48,0,13-.59,19.41-1.26,1.38-.14,3.71-1.78,3.73-2.76C650.17,590.3,650.1,576.52,650.1,562.17Z" transform="translate(-527.43 -420.82)"/><path class="cls-1" d="M1021,554.55H957.12v6.06q0,40.74,0,81.48c0,6-.48,6.53-6.55,6.54-11.66,0-23.33-.09-35,.06-4.22.06-6-1.46-6-5.83q.12-104,0-208c0-4.12,1.68-5.62,5.68-5.58,11.83.11,23.66.17,35.49,0,4.67-.07,6.46,1.42,6.41,6.36-.21,23.16-.09,46.32-.09,69.48v5.7H1021v-5.34q0-34.74,0-69.48c0-6.1.5-6.63,6.48-6.64,11.66,0,23.33.11,35-.07,4.5-.07,6.22,1.61,6.22,6.15q-.12,103.48,0,207c0,4.41-1.45,6.36-6.08,6.29-12-.18-24-.15-36,0-4.34,0-5.78-1.7-5.76-6,.16-27.49.12-55,.15-82.48Z" transform="translate(-527.43 -420.82)"/><path class="cls-1" d="M1296,503.23c9.17-2.68,17.74-6.41,26.63-7.43,9.6-1.1,19.79-1.08,29.19.94,21.39,4.6,32.19,20.35,36.68,40.48a157.81,157.81,0,0,1-2.24,78.12c-7.93,28.06-27.18,39.32-59.6,37.13-15.08-1-29-5.68-41.19-14.72a6.42,6.42,0,0,0-.72,1.17c-2.64,9.72-2.64,9.72-13.07,9.72-5.67,0-11.34-.19-17,.06-4.72.21-6.59-1.59-6.51-6.4.2-12.49.07-25,.07-37.49V437.34c0-7.64.33-8,7.78-8,11.33,0,22.67.12,34-.06,4.55-.07,6.08,1.66,6,6.2C1295.93,458.16,1296,480.82,1296,503.23ZM1345.79,573c-1.25-7.78-2-16.27-4.1-24.4-2.27-8.74-8.38-14.23-17.74-15.21-9.59-1-18.5,1.5-26.87,5.91-1.13.59-1.87,3-1.88,4.52-.12,20,0,39.94-.15,59.91,0,3,1.15,4.45,3.72,5.63a53,53,0,0,0,25.23,4.72c9.93-.53,15.77-4.55,17.92-14.2C1343.83,591.35,1344.47,582.52,1345.79,573Z" transform="translate(-527.43 -420.82)"/><path class="cls-1" d="M1193.05,638.56c-13,7.54-26.12,12.53-40.43,13.94a86.84,86.84,0,0,1-34.13-3c-18.24-5.56-28.82-20-29.38-41.27-.59-22.32-.29-44.66-.35-67,0-12.17.1-24.33,0-36.49,0-4.09,1.51-5.69,5.58-5.64,12,.13,24,.2,36,0,4.89-.1,6.36,1.85,6.33,6.51-.13,27.83-.08,55.66,0,83.49a102.21,102.21,0,0,0,.48,11.48c.94,8.36,5.69,12.75,14.07,13.46a47.73,47.73,0,0,0,24.26-4.53c3.45-1.59,4.79-3.56,4.77-7.56-.2-32-.12-64-.11-96,0-6.32.47-6.78,6.85-6.79,11.5,0,23,.1,34.49-.06,4.28-.06,5.92,1.51,5.92,5.85q-.15,69,0,138c0,4.43-1.81,5.88-6,5.78-6.49-.16-13-.31-19.48.12-5.28.35-7.94-1.4-7.95-6.81A17.86,17.86,0,0,0,1193.05,638.56Z" transform="translate(-527.43 -420.82)"/><path class="cls-1" d="M808.68,538.41c-7.07,0-13.22-.11-19.36.05-4.09.1-5.63-1.58-5.5-5.67.23-7.16.26-14.34,0-21.49-.16-4,1.52-5.63,5.25-6.35,5.21-1,10.3-2.76,15.53-3.67,3.46-.6,4.19-2.25,4.14-5.41-.15-11.16.19-22.33-.16-33.48-.16-5,1.65-6.24,6.32-6.12,11.49.27,23,.25,34.49,0,4.45-.1,6.18,1.15,6,5.89-.3,10.32,0,20.66,0,31,0,1.79,0,3.58,0,5.85,9.73,0,18.86.19,28-.08,4.58-.14,6.3,1.52,6.2,6.05-.19,8.83,0,17.66-.06,26.49,0,6.38-.54,6.92-6.76,6.94-8.82,0-17.64,0-27,0-.13,1.9-.33,3.49-.33,5.08,0,17.49-.05,35,0,52.48,0,12,5.56,17.64,17.7,18a95.57,95.57,0,0,0,11.47-.46c3.89-.37,5.51,1.13,5.45,5.05-.13,8.5.14,17-.24,25.48-.07,1.71-2,4.36-3.56,4.83-16.36,4.83-32.89,5.16-49.17-.14-16.87-5.5-27.35-19.85-28-39.27-.68-21.47-.34-43-.44-64.47C808.67,543.05,808.68,541.1,808.68,538.41Z" transform="translate(-527.43 -420.82)"/><path class="cls-1" d="M721,573q0-33.5,0-67c0-6.65.38-7,7.19-7,11.49,0,23,.16,34.48-.08,4.69-.1,6.1,1.82,6.09,6.21q-.12,68-.07,136c0,6.57-.94,7.43-7.6,7.45-10.83,0-21.66.05-32.49,0-6.42,0-7.59-1.24-7.6-7.57Q721,607,721,573Z" transform="translate(-527.43 -420.82)"/><path class="cls-1" d="M745.28,487a26.41,26.41,0,0,1-.18-52.81,26.41,26.41,0,0,1,.18,52.81Z" transform="translate(-527.43 -420.82)"/></svg>