<svg id="Layer_1" data-name="Layer 1" xmlns="http://www.w3.org/2000/svg" viewBox="0 0 128.04 127.97"><defs><style>.cls-1{fill:#343434;}</style></defs><path class="cls-1" d="M960.34,476.46c18.13,0,36.26.05,54.39,0a9.39,9.39,0,0,1,9.48,7.76,9.69,9.69,0,0,1,.1,1.42q0,54.82,0,109.63a9.11,9.11,0,0,1-8.86,9.15H905.83c-4.47,0-7.9-2.43-9.11-6.51a10.75,10.75,0,0,1-.4-2.94q0-54.51,0-109a9.43,9.43,0,0,1,9.43-9.49c11.86.11,23.72,0,35.58,0Zm4.23,55.67c0-2-.06-4.21,0-6.37,0-1.12-.27-1.52-1.46-1.51q-7.85.09-15.69,0c-1.18,0-1.48.37-1.48,1.5q0,29.24,0,58.46c0,1.12.3,1.55,1.48,1.54,5.46,0,10.94,0,16.41,0,1.15,0,1.48-.35,1.48-1.51q-.06-14.61,0-29.23a37.6,37.6,0,0,1,.49-6.18c.71-4.13,2.56-7.51,7-8.63a16.89,16.89,0,0,1,4.26-.42c4.54.06,7.43,2.2,8.38,6.65a42,42,0,0,1,.8,8.53c.1,9.71,0,19.41,0,29.12,0,1.6,0,1.64,1.58,1.64,5.39,0,10.78,0,16.17,0,1.2,0,1.55-.34,1.55-1.56-.05-11.66.09-23.33-.1-35a56.56,56.56,0,0,0-1.46-11.58c-1.41-6.21-4.89-11-11.1-13.26a31,31,0,0,0-8.77-1.6,20.2,20.2,0,0,0-14.83,4.45A59.61,59.61,0,0,0,964.57,532.13ZM934.38,555c0-9.78,0-19.56,0-29.34,0-1.06-.26-1.46-1.4-1.45-5.51.06-11,0-16.53,0-1.05,0-1.44.23-1.44,1.38q.06,29.34,0,58.68c0,1.14.39,1.43,1.44,1.42,5.47,0,10.94,0,16.41,0,1.25,0,1.53-.44,1.52-1.61C934.36,574.44,934.38,564.74,934.38,555Zm-9.71-39A11.11,11.11,0,1,0,913.61,505,11,11,0,0,0,924.67,516.07Z" transform="translate(-896.28 -476.42)"/></svg>