<svg xmlns="http://www.w3.org/2000/svg" viewBox="0 0 128.2 128.1"><path d="M497.6,0H387.8a9.6,9.6,0,0,0-6.7,2.9,9.3,9.3,0,0,0-2.7,6.9V119.2a9.1,9.1,0,0,0,9,8.9H497.8c4.9,0,8.8-4.3,8.8-9.3V9.7a9.7,9.7,0,0,0-9-9.7ZM416.5,109.5H397.1V48h19.4Zm-9.6-69.9a11,11,0,0,1-.1-22h.2a11,11,0,1,1-.1,22Zm80.8,69.9H468.6s-.2-34.7-.8-38.5-2.6-6.7-6.6-7.3c-6.6-1-11.9.9-13.3,9-.8,4.4-.5,36.8-.5,36.8H428.1V48h18.5v8.3a20.5,20.5,0,0,1,17.7-9.7c23.3,0,23.2,21.9,23.3,25.6Z" transform="translate(-378.4 0)" fill="#343434"/></svg>