<svg xmlns="http://www.w3.org/2000/svg" fill="#343434" viewBox="0 0 506.6 128.1"><circle cx="74.7" cy="28.7" r="10.9"/><path d="M19.6 19.2H0v90h56.3V91.1H19.6zm45.7 29h18.8v61H65.3zm274.9 6.1a25.2 25.2 0 0 0-24.3-7.6A24.4 24.4 0 0 0 298.6 58c-9.9 12.1-11.8 52.6 26.2 52.5 10.7-.8 17-9.7 17-9.7v8.4H359v-90h-18.8zm-13.7 40c-7.7 0-15.3-4.5-15.4-16.5 0-10 9-15 15.2-15s15.5 3.4 15.5 15.2c.5 5.5-3 16.3-15.3 16.3zM129.3 46.7a20.8 20.8 0 0 0-16.3 10c-.1-.3-.1-8.5-.1-8.5H94.8v61h18.7c.4-37-1.5-45.6 11.7-46.2s9.5 14.1 9.9 46.1h18.7V73.9c0-18.9-7.1-28.3-24.5-27.2zm74 28.8 24.1-27.3h-23l-21.7 24.5V19.1h-18.8v90.1h18.8V79.1l20.7 30h23.5l-23.7-31.8a1.3 1.3 0 0 1 .1-1.8zM497.6 0H387.8a9.6 9.6 0 0 0-6.7 2.9 9.3 9.3 0 0 0-2.7 6.9v109.4a9.1 9.1 0 0 0 9 8.9h110.4c4.9 0 8.8-4.3 8.8-9.3V9.7a9.7 9.7 0 0 0-9-9.7zm-81.1 109.5h-19.4V48h19.4zm-9.6-69.9c-6.075.028-11.022-4.875-11.05-10.95s4.875-11.022 10.95-11.05h.2c6.075.028 10.978 4.975 10.95 11.05s-4.975 10.978-11.05 10.95zm80.8 69.9h-19.1c-.3-39.4 1.8-45.4-10-46-13.5 0-10.8 10-11.2 46h-19.3V48h18.5v8.3a20.5 20.5 0 0 1 17.7-9.7c23.3 0 23.2 21.9 23.3 25.6zM257.1 46.3c-14.4.2-33.3 8.9-33.3 30.9s14 28.5 20.3 31.1c25.3 9.1 39.7-9.6 39.7-9.6l-13.1-9.6h-.1a16.5 16.5 0 0 1-14 7.4c-11.7-.4-15.1-12.2-13.2-12.2h42.3c.9.1 1.1-.3 1.1-1.1 0-7.9.5-37.2-29.7-36.9zm-14.4 25.4s.3-11.9 13.6-11.9c10.8 0 11.6 11.9 11.6 11.9z"/></svg>