<svg id="Layer_1" data-name="Layer 1" xmlns="http://www.w3.org/2000/svg" viewBox="0 0 506.52 128.1"><defs><style>.cls-1{fill:#343434;}</style></defs><path class="cls-1" d="M1193.49,475l1.59.43a9.21,9.21,0,0,1,7,9.27q0,41.73,0,83.46c0,8.54,0,17.09,0,25.63a9.09,9.09,0,0,1-7.28,9.14,7.52,7.52,0,0,1-1.78.16H1082.92a9.13,9.13,0,0,1-9-8.87c0-.24,0-.48,0-.72q0-54.36,0-108.73a9.26,9.26,0,0,1,7-9.31l1.82-.46Zm-51.27,56.29c0-2.53,0-4.68,0-6.83,0-1.07-.25-1.44-1.39-1.43q-7.86.09-15.71,0c-1.16,0-1.49.33-1.49,1.48q0,29.22,0,58.43c0,1.21.38,1.59,1.58,1.58,5.4-.06,10.79,0,16.19,0,1.16,0,1.58-.28,1.57-1.53q-.08-14.61,0-29.22a37.24,37.24,0,0,1,.48-6.06c1.42-8.14,6.73-10,13.3-9,4,.58,6,3.53,6.61,7.26a49.86,49.86,0,0,1,.72,8.19c.08,9.62.05,19.24,0,28.85,0,1.13.28,1.53,1.46,1.52,5.43-.06,10.87,0,16.3,0,1.07,0,1.43-.29,1.43-1.42,0-12,.08-24-.1-35.92a51.66,51.66,0,0,0-1.44-10.85c-1.58-6.74-5.53-11.63-12.4-13.63a38.62,38.62,0,0,0-6.69-1.12c-7.42-.75-13.7,1.52-18.59,7.25C1143.49,529.51,1143,530.27,1142.22,531.29ZM1112,553.69v-29c0-1.66,0-1.66-1.6-1.66-5.43,0-10.86,0-16.3,0-1.18,0-1.45.38-1.45,1.5q0,29.21,0,58.41c0,1.21.35,1.59,1.56,1.58,5.39-.06,10.79,0,16.18,0,1.6,0,1.61,0,1.61-1.59Zm-9.7-61.06a11.11,11.11,0,1,0,11.17,11.1A11,11,0,0,0,1102.3,492.63Z" transform="translate(-695.54 -475)"/><path class="cls-1" d="M1035.74,529.28v-33.5c0-1.59,0-1.6,1.54-1.6,5.28,0,10.55,0,15.83,0,1.15,0,1.5.32,1.49,1.48q0,43.53,0,87.06c0,1.14-.3,1.49-1.47,1.48-4.75-.07-9.51-.06-14.27,0-1.11,0-1.56-.25-1.49-1.44.09-1.75,0-3.51,0-5.27,0-.42-.05-.84-.09-1.64-.63.66-1,1.06-1.39,1.49a22.68,22.68,0,0,1-15.61,8.2c-12.72,1-25-4.77-29.93-18-4.49-12-3.34-23.68,3.66-34.51a24.58,24.58,0,0,1,17.3-11.37A29.32,29.32,0,0,1,1029,524a17.53,17.53,0,0,1,5.79,4.57,8.27,8.27,0,0,0,.55.63S1035.45,529.2,1035.74,529.28Zm-13.76,40c.91-.09,1.82-.15,2.73-.28a14,14,0,0,0,9.17-4.89,15.38,15.38,0,0,0,3.41-9.13c.33-5.06-.76-9.69-4.56-13.34a14.34,14.34,0,0,0-9.45-3.82c-4.68-.27-9,.73-12.39,4.22-3.94,4.06-4.8,9.11-4,14.42C1008.09,564.5,1013.82,569.21,1022,569.26Z" transform="translate(-695.54 -475)"/><path class="cls-1" d="M878.56,547.83l2.42-2.76q9.09-10.5,18.22-21a2.44,2.44,0,0,1,1.56-.83c7.08,0,14.16,0,21.23,0,.19,0,.38,0,.79.07-.33.42-.54.72-.79,1q-11.57,13.11-23.15,26.22c-.62.7-.54,1.15,0,1.84q11.31,15.18,22.57,30.38c.3.4.58.81,1,1.38-.63,0-1,.06-1.4.06-7,0-13.91,0-20.86,0a2.12,2.12,0,0,1-2-1.09q-9.3-14-18.66-28c-.25-.38-.55-.74-.82-1.11l-.31.08c0,.48-.09,1-.09,1.44,0,9.11,0,18.21,0,27.31,0,1-.27,1.37-1.33,1.36-5.4-.06-10.8-.05-16.19,0-1,0-1.3-.26-1.3-1.27q0-43.71,0-87.43c0-1.09.36-1.34,1.38-1.33,5.35,0,10.71,0,16.07,0,1.15,0,1.37.4,1.37,1.45q0,25.27,0,50.54v1.53Z" transform="translate(-695.54 -475)"/><path class="cls-1" d="M966.17,564.12l13.14,9.61c-1.17,1.19-2.2,2.37-3.37,3.41a32.71,32.71,0,0,1-21.2,8.53C946,586,938,583.88,931,578.46a29.23,29.23,0,0,1-11.38-20.06c-1-7.39,0-14.49,3.76-21,4.77-8.23,12.08-13,21.22-15.07a34.82,34.82,0,0,1,17.18.09c9.65,2.63,15.6,9.08,18.62,18.42a35.93,35.93,0,0,1,1.71,10.09c.06,2.43.11,4.86.21,7.29,0,.83-.24,1.2-1.08,1.12-.36,0-.72,0-1.08,0h-40.3c-1.88,0-1.94.08-1.41,1.9a14.48,14.48,0,0,0,15.3,10.24,16.59,16.59,0,0,0,11.93-6.72Zm-28-17.43h20.27c1.28,0,2.56,0,3.84,0,.89,0,1.27-.3,1.08-1.2a23.54,23.54,0,0,0-.54-2.68,11.55,11.55,0,0,0-11-8c-5.72-.12-9.93,2.23-12.56,7.29A8.32,8.32,0,0,0,938.19,546.69Z" transform="translate(-695.54 -475)"/><path class="cls-1" d="M808.53,531.68c.37-.41.58-.58.73-.8,4.28-6.33,10.23-9.34,17.89-9.17,4.07.09,8,.55,11.73,2.4,5,2.49,7.63,6.74,9.07,11.9a47.92,47.92,0,0,1,1.52,12.89q0,16.83,0,33.66c0,1.59,0,1.59-1.55,1.59H832.45c-1.65,0-1.65,0-1.66-1.61,0-9.1.08-18.2,0-27.3a53.48,53.48,0,0,0-.89-10c-1.19-5.81-5.66-7.62-10.91-7-6.59.76-8.6,5.15-9.32,9.76a50.32,50.32,0,0,0-.49,7.26q-.07,13.72,0,27.43c0,1.16-.31,1.48-1.47,1.47-5.36-.06-10.72,0-16.07,0-1,0-1.3-.25-1.3-1.26q0-29.24,0-58.45c0-.91.21-1.25,1.2-1.25q7.86.07,15.71,0c1,0,1.2.38,1.18,1.26,0,2,0,4.08,0,6.11A9.46,9.46,0,0,0,808.53,531.68Z" transform="translate(-695.54 -475)"/><path class="cls-1" d="M715.08,530.18q0,17.19,0,34.36c0,1.58,0,1.59,1.55,1.59,11.23,0,22.47,0,33.7,0,1.14,0,1.49.29,1.47,1.46-.06,5.1,0,10.21,0,15.32,0,1-.23,1.31-1.26,1.31q-26.87,0-53.72,0c-1,0-1.28-.28-1.28-1.28q0-43.7,0-87.4c0-1.07.33-1.36,1.36-1.35,5.6,0,11.2,0,16.79,0,1.09,0,1.42.31,1.42,1.42C715.07,507.11,715.08,518.65,715.08,530.18Z" transform="translate(-695.54 -475)"/><path class="cls-1" d="M760.82,553.7c0-9.7,0-19.4,0-29.09,0-1.1.29-1.43,1.4-1.42,5.4.06,10.79,0,16.19,0,.91,0,1.24.22,1.24,1.2q0,29.28,0,58.55c0,.93-.25,1.23-1.21,1.22-5.43,0-10.87,0-16.3,0-1.12,0-1.31-.39-1.3-1.39C760.83,573.09,760.82,563.4,760.82,553.7Z" transform="translate(-695.54 -475)"/><path class="cls-1" d="M759.31,503.7a10.89,10.89,0,1,1,10.83,10.89A10.62,10.62,0,0,1,759.31,503.7Z" transform="translate(-695.54 -475)"/></svg>