<svg width="61" height="61" viewBox="0 0 61 61" fill="none" xmlns="http://www.w3.org/2000/svg">
<path d="M30.3984 5.63007C27.1154 5.63007 23.8645 6.27671 20.8314 7.53308C17.7982 8.78945 15.0422 10.6309 12.7208 12.9524C8.03236 17.6408 5.39844 23.9997 5.39844 30.6301C5.39844 41.6801 12.5734 51.0551 22.4984 54.3801C23.7484 54.5801 24.1484 53.8051 24.1484 53.1301V48.9051C17.2234 50.4051 15.7484 45.5551 15.7484 45.5551C14.5984 42.6551 12.9734 41.8801 12.9734 41.8801C10.6984 40.3301 13.1484 40.3801 13.1484 40.3801C15.6484 40.5551 16.9734 42.9551 16.9734 42.9551C19.1484 46.7551 22.8234 45.6301 24.2484 45.0301C24.4734 43.4051 25.1234 42.3051 25.8234 41.6801C20.2734 41.0551 14.4484 38.9051 14.4484 29.3801C14.4484 26.6051 15.3984 24.3801 17.0234 22.6051C16.7734 21.9801 15.8984 19.3801 17.2734 16.0051C17.2734 16.0051 19.3734 15.3301 24.1484 18.5551C26.1234 18.0051 28.2734 17.7301 30.3984 17.7301C32.5234 17.7301 34.6734 18.0051 36.6484 18.5551C41.4234 15.3301 43.5234 16.0051 43.5234 16.0051C44.8984 19.3801 44.0234 21.9801 43.7734 22.6051C45.3984 24.3801 46.3484 26.6051 46.3484 29.3801C46.3484 38.9301 40.4984 41.0301 34.9234 41.6551C35.8234 42.4301 36.6484 43.9551 36.6484 46.2801V53.1301C36.6484 53.8051 37.0484 54.6051 38.3234 54.3801C48.2484 51.0301 55.3984 41.6801 55.3984 30.6301C55.3984 27.347 54.7518 24.0961 53.4954 21.063C52.2391 18.0298 50.3976 15.2739 48.0761 12.9524C45.7546 10.6309 42.9987 8.78945 39.9655 7.53308C36.9324 6.27671 33.6815 5.63007 30.3984 5.63007Z" fill="#333333"/>
</svg>
