<svg width="60" height="61" viewBox="0 0 60 61" fill="none" xmlns="http://www.w3.org/2000/svg">
<path d="M32.5 22.875H46.25L32.5 8.89583V22.875ZM15 5.08333H35L50 20.3333V50.8333C50 52.1815 49.4732 53.4745 48.5355 54.4278C47.5979 55.3811 46.3261 55.9167 45 55.9167H15C13.6739 55.9167 12.4021 55.3811 11.4645 54.4278C10.5268 53.4745 10 52.1815 10 50.8333V10.1667C10 7.34541 12.225 5.08333 15 5.08333ZM35 50.8333V48.2917C35 44.9112 28.325 43.2083 25 43.2083C21.675 43.2083 15 44.9112 15 48.2917V50.8333H35ZM25 30.5C23.6739 30.5 22.4021 31.0356 21.4645 31.9889C20.5268 32.9422 20 34.2351 20 35.5833C20 36.9315 20.5268 38.2245 21.4645 39.1778C22.4021 40.1311 23.6739 40.6667 25 40.6667C26.3261 40.6667 27.5979 40.1311 28.5355 39.1778C29.4732 38.2245 30 36.9315 30 35.5833C30 34.2351 29.4732 32.9422 28.5355 31.9889C27.5979 31.0356 26.3261 30.5 25 30.5Z" fill="#333333"/>
</svg>
