<svg width="61" height="61" viewBox="0 0 61 61" fill="none" xmlns="http://www.w3.org/2000/svg">
<path d="M48.0215 8.13837C49.3476 8.13837 50.6193 8.66515 51.557 9.60283C52.4947 10.5405 53.0215 11.8123 53.0215 13.1384V48.1384C53.0215 49.4645 52.4947 50.7362 51.557 51.6739C50.6193 52.6116 49.3476 53.1384 48.0215 53.1384H13.0215C11.6954 53.1384 10.4236 52.6116 9.48595 51.6739C8.54827 50.7362 8.02148 49.4645 8.02148 48.1384V13.1384C8.02148 11.8123 8.54827 10.5405 9.48595 9.60283C10.4236 8.66515 11.6954 8.13837 13.0215 8.13837H48.0215ZM46.7715 46.8884V33.6384C46.7715 31.4769 45.9128 29.4039 44.3844 27.8754C42.856 26.347 40.783 25.4884 38.6215 25.4884C36.4965 25.4884 34.0215 26.7884 32.8215 28.7384V25.9634H25.8465V46.8884H32.8215V34.5634C32.8215 32.6384 34.3715 31.0634 36.2965 31.0634C37.2247 31.0634 38.115 31.4321 38.7714 32.0885C39.4277 32.7449 39.7965 33.6351 39.7965 34.5634V46.8884H46.7715ZM17.7215 22.0384C18.8354 22.0384 19.9037 21.5959 20.6913 20.8082C21.479 20.0206 21.9215 18.9523 21.9215 17.8384C21.9215 15.5134 20.0465 13.6134 17.7215 13.6134C16.6009 13.6134 15.5263 14.0585 14.734 14.8508C13.9416 15.6432 13.4965 16.7178 13.4965 17.8384C13.4965 20.1634 15.3965 22.0384 17.7215 22.0384ZM21.1965 46.8884V25.9634H14.2715V46.8884H21.1965Z" fill="#333333"/>
</svg>
